# xmcd
#
# Track frame offsets: 
#        150
#        21679
#        36800
#        52714
#        65989
#        81050
#
# Disc length: 1359 seconds
#
# Revision: 0
# Processed by: cddbd v1.5.2PL0 Copyright (c) Steve Scherf et al.
# Submitted via: ExactAudioCopy v0.95a4
#
DISCID=4c054d06
DTITLE=At The Gates - To Drink From The Night Itself (Japanese Edt) - 
DTITLE=CD02
DYEAR=2018
DGENRE=Death Metal
TTITLE0=Daggers of Black Haze
TTITLE1=The Chasm
TTITLE2=A Labyrinth Of Tombs
TTITLE3=Raped By The Light Of Christ (2018)
TTITLE4=The Chasm (Demo Version)
TTITLE5=The Mirror Black (feat. Rob Miller)
EXTD=
EXTT0=
EXTT1=
EXTT2=
EXTT3=
EXTT4=
EXTT5=
PLAYORDER=
